<svg xmlns="http://www.w3.org/2000/svg" viewBox="0 0 48 48" width="48" height="48">
  <path fill="#d4af37" d="M24 4C24 4 18 10 16 16C14 22 16 26 18 28C14 24 10 22 8 18C8 18 8 26 14 32C18 36 22 38 24 44C26 38 30 36 34 32C40 26 40 18 40 18C38 22 34 24 30 28C32 26 34 22 32 16C30 10 24 4 24 4Z"/>
  <path fill="#d4af37" opacity="0.5" d="M24 14C24 14 21 18 20 22C19 26 21 28 22 29C22 29 20 26 21 22C22 18 24 14 24 14Z"/>
  <path fill="#d4af37" opacity="0.5" d="M24 14C24 14 27 18 28 22C29 26 27 28 26 29C26 29 28 26 27 22C26 18 24 14 24 14Z"/>
</svg>
